<?xml version="1.0" encoding="UTF-8" standalone="no"?>
<!-- Created with Inkscape (http://www.inkscape.org/) -->

<svg
   xmlns:dc="http://purl.org/dc/elements/1.1/"
   xmlns:cc="http://creativecommons.org/ns#"
   xmlns:rdf="http://www.w3.org/1999/02/22-rdf-syntax-ns#"
   xmlns:svg="http://www.w3.org/2000/svg"
   xmlns="http://www.w3.org/2000/svg"
   xmlns:sodipodi="http://sodipodi.sourceforge.net/DTD/sodipodi-0.dtd"
   xmlns:inkscape="http://www.inkscape.org/namespaces/inkscape"
   version="1.1"
   id="svg4485"
   xml:space="preserve"
   width="102.19907"
   height="103.444"
   viewBox="0 0 102.19908 103.444"
   sodipodi:docname="logo.svg"
   inkscape:version="0.92.1 r15371"><metadata
     id="metadata4491"><rdf:RDF><cc:Work
         rdf:about=""><dc:format>image/svg+xml</dc:format><dc:type
           rdf:resource="http://purl.org/dc/dcmitype/StillImage" /><dc:title></dc:title></cc:Work></rdf:RDF></metadata><defs
     id="defs4489"><clipPath
       clipPathUnits="userSpaceOnUse"
       id="clipPath4501"><path
         d="M 0,0 H 124.992 V 144 H 0 Z"
         id="path4499"
         inkscape:connector-curvature="0"
         style="clip-rule:evenodd" /></clipPath><clipPath
       clipPathUnits="userSpaceOnUse"
       id="clipPath4525"><path
         d="M 0,0 H 100 V 125 H 0 Z"
         id="path4523"
         inkscape:connector-curvature="0" /></clipPath><clipPath
       clipPathUnits="userSpaceOnUse"
       id="clipPath4545"><path
         d="M 0,0 H 100 V 125 H 0 Z"
         id="path4543"
         inkscape:connector-curvature="0" /></clipPath><clipPath
       clipPathUnits="userSpaceOnUse"
       id="clipPath4561"><path
         d="M 0,0 H 100 V 125 H 0 Z"
         id="path4559"
         inkscape:connector-curvature="0" /></clipPath><clipPath
       clipPathUnits="userSpaceOnUse"
       id="clipPath4577"><path
         d="M 0,0 H 100 V 125 H 0 Z"
         id="path4575"
         inkscape:connector-curvature="0" /></clipPath><clipPath
       clipPathUnits="userSpaceOnUse"
       id="clipPath4593"><path
         d="M 0,0 H 100 V 125 H 0 Z"
         id="path4591"
         inkscape:connector-curvature="0" /></clipPath><clipPath
       clipPathUnits="userSpaceOnUse"
       id="clipPath4609"><path
         d="M 0,0 H 100 V 125 H 0 Z"
         id="path4607"
         inkscape:connector-curvature="0" /></clipPath><clipPath
       clipPathUnits="userSpaceOnUse"
       id="clipPath4625"><path
         d="M 0,0 H 100 V 125 H 0 Z"
         id="path4623"
         inkscape:connector-curvature="0" /></clipPath><clipPath
       clipPathUnits="userSpaceOnUse"
       id="clipPath4641"><path
         d="M 0,0 H 100 V 125 H 0 Z"
         id="path4639"
         inkscape:connector-curvature="0" /></clipPath><clipPath
       clipPathUnits="userSpaceOnUse"
       id="clipPath4657"><path
         d="M 0,0 H 100 V 125 H 0 Z"
         id="path4655"
         inkscape:connector-curvature="0" /></clipPath><clipPath
       clipPathUnits="userSpaceOnUse"
       id="clipPath4673"><path
         d="M 0,0 H 100 V 125 H 0 Z"
         id="path4671"
         inkscape:connector-curvature="0" /></clipPath><filter
       inkscape:collect="always"
       style="color-interpolation-filters:sRGB"
       id="filter5085"
       x="-0.072018109"
       width="1.1440362"
       y="-0.071981907"
       height="1.1439638"><feGaussianBlur
         inkscape:collect="always"
         stdDeviation="2.6806348"
         id="feGaussianBlur5087" /></filter></defs><sodipodi:namedview
     pagecolor="#ffffff"
     bordercolor="#666666"
     borderopacity="1"
     objecttolerance="10"
     gridtolerance="10"
     guidetolerance="10"
     inkscape:pageopacity="0"
     inkscape:pageshadow="2"
     inkscape:window-width="1918"
     inkscape:window-height="1198"
     id="namedview4487"
     showgrid="false"
     inkscape:zoom="6.033421"
     inkscape:cx="51.189066"
     inkscape:cy="65.962438"
     inkscape:window-x="1"
     inkscape:window-y="1"
     inkscape:window-maximized="0"
     inkscape:current-layer="g4497"
     fit-margin-top="0"
     fit-margin-left="0"
     fit-margin-right="0"
     fit-margin-bottom="1.2" /><g
     id="g4493"
     inkscape:groupmode="layer"
     inkscape:label="Logo_PiGx"
     transform="matrix(1.3333333,0,0,-1.3333333,-32.450065,179.1392)"><g
       id="g4495"><g
         id="g4497"
         clip-path="url(#clipPath4501)"><path
           style="fill:#7d7d7d;fill-opacity:1;fill-rule:evenodd;stroke:none;stroke-width:1.33333325;filter:url(#filter5085)"
           d="m 94.142578,99.246094 c -24.652133,0 -44.666016,20.024786 -44.666016,44.689456 0,13.01626 5.57629,24.73575 14.464844,32.90625 l -0.269531,0.59765 5.03125,11.1836 h 25.439453 25.675782 l 5.03125,-11.1836 -0.33984,-0.75781 c 8.78939,-8.1633 14.29882,-19.81315 14.29882,-32.74609 0,-24.66467 -20.01375,-44.689456 -44.666012,-44.689456 z"
           transform="matrix(0.75000002,0,0,-0.75000002,-7.94473,203.96383)"
           id="path4515-7"
           inkscape:connector-curvature="0" /><path
           d="m 62.407,131.598 c 18.4892,0 33.5,-15.018 33.5,-33.5165 0,-18.4979 -15.0108,-33.516 -33.5,-33.516 -18.4891,0 -33.5,15.0181 -33.5,33.516 0,18.4985 15.0109,33.5165 33.5,33.5165 z"
           style="fill:#ffffff;fill-opacity:1;fill-rule:evenodd;stroke:none"
           id="path4515"
           inkscape:connector-curvature="0" /><g
           id="g4517"
           transform="matrix(0.333111,0,0,0.333111,28.907,114.591)"><g
             id="g4519"
             transform="translate(0,-125)"><g
               id="g4521" /><g
               id="g4535"><g
                 clip-path="url(#clipPath4525)"
                 id="g4533"><path
                   d="m 86.2813,119.719 c -2.7494,-0.216 -3.4961,-3.985 -7.0313,-6.156 -7.259,5.207 -10.3905,2.1 -17.5,0.937 -4.9904,-1.75 -7.6217,0.733 -16.5,2.469 1.2023,-4.429 2.7516,-4.454 2.9688,-4.875 5.2661,-0.712 6.8298,0.493 10.2187,-2.875 -4.3988,3.716 -7.6521,1.045 -14.4062,3.875 -1.3359,0.635 -1.171,0.793 -3.9688,2.344 -1.0149,-5.093 1.4309,-9.368 4.7188,-12.25 2.0923,-1.835 3.8242,-2.732 8.125,-1.969 1.8626,0.33 -3.1442,-3.1454 -3.5268,-5.5985 C 51.0844,93.591 52.157,91.9742 55.683,90 47.9467,92.7317 48.5501,100.494 39.6563,99.0625 25.3452,96.7594 24.7897,97.1376 5.3125,101.094 9.957,88.16 21.0118,93.7456 40.0313,91 26.4216,92.271 18.6646,90.54 11.3125,93 16.9434,81.9322 30.9377,86.7959 42.625,87.5625 29.6252,85.6352 23.5252,84.689 17.9063,86.5313 24.4912,75.9039 36.8591,81.872 44.0938,84.1563 38.9917,81.8468 34.7375,79.6488 27.2188,80.2188 34.1418,72.3934 42.913,78.9489 46.0938,81.5 42.0913,77.2982 37.8282,75.3306 30.875,76.2813 24.5154,72.0124 23.6563,59.9375 23.6563,59.9375 c 0,0 1.3668,0.0302 1.5312,-0.0312 -0.0915,-0.0383 -0.3919,-0.0958 -1.0937,-0.1875 -2.8966,-0.3786 -5.0128,-0.9141 -6.2188,-4.375 -2.5037,-7.1852 5.8377,-6.5235 3.5625,-1.0938 2.5657,1.0902 4.0179,0.6285 5.1563,-0.6875 1.6999,-1.9652 0.8541,-5.3588 -0.0938,-7.7812 -1.0979,-2.8057 -3.8261,-4.7073 -6.0625,-6.7188 -1.5309,-1.3769 -5.3746,-1.1047 -4.9687,-3.625 0.3997,-2.4826 -5.1561,-5.284 -2.8438,-5.5 2.3123,-0.216 4.8251,2.439 10.3438,3.4688 2.9615,0.5526 15.9097,2.1919 18.9776,2.991 6.7009,1.7454 9.5934,5.4469 10.8125,7.1161 1.2191,1.6692 2.4086,10.1704 -0.7053,13.4955 3.1743,-1.7022 2.4993,-9.5515 1.8314,-12.2848 12.4503,-0.4991 27.9381,21.4848 24.5851,33.4708 2.1444,3.0165 5.3634,2.6781 15.1237,10.7426 -4.1798,1.2577 -1.8536,1.0127 -3.3016,0.7711 1.628,1.1536 2.1571,3.3405 2.7538,6.3379 -4.1969,-1.3613 -5.192,-4.8293 -9.1085,-5.9215 -3.9165,-1.0922 -3.6407,-2.6238 -15.0937,-1.5625 7.7373,0.0076 9.8909,-0.484 15.3125,2.4375 3.7139,2.1211 5.4616,7.854 6.875,17.781 -2.8072,-3.046 -4.6548,-3.918 -6.25,-3.75 3.0372,0.301 5.7898,3.515 8.5,7.094 1.4351,4.709 -3.1434,7.287 -6.4375,7.594 -0.2027,0.019 -0.3793,0.014 -0.5625,0 z m -67.8125,-6.25 c 0.4352,-3.783 0.0443,-5.778 3.7812,-9.969 5.7163,-4.7079 11.9375,-4.9062 11.9375,-4.9062 0,0 4.9657,1.0383 7.5,1.0937 1.6886,0.0369 2.2594,-0.0691 3.2768,-0.5 1.6057,-0.6801 2.943,-2.4614 4.1652,-3.1652 0.3506,1.5905 3.3705,4.6967 3.3705,4.6967 0,0 -2.5304,-0.262 -3.7812,-0.063 -1.1714,0.187 -2.2662,0.727 -3.375,1.157 -9.1051,3.527 -13.6889,0.614 -26.875,11.656 z m 53.8437,-4.594 c 0.5045,0.022 1.1155,-0.125 1.8125,-0.531 0.9383,-0.547 0.3705,-2.57 -0.3437,-2.156 -1.4388,0.833 -2.3259,-0.247 -3.5,0.375 -0.0473,-0.088 -0.2606,-0.201 -0.8438,-0.282 -0.9434,-0.131 -0.5681,0.249 0.4688,0.875 0.2101,0.127 0.8926,1.653 2.4062,1.719 z m -50.7187,-5.437 2.2812,-5.2192 c 0,0 2.5527,-0.4507 8.8438,0.0937 -2.6335,0.8268 -4.8496,1.2389 -7.0313,2.4065 -1.3411,0.439 -4.0937,2.719 -4.0937,2.719 z m 2.9375,-48.9692 c -0.9368,0.0949 -1.5961,-1.171 -2.1875,-1.9063 -0.513,-0.6377 -0.2135,-1.9454 -1.625,-2.5937 -1.7972,-0.7451 -2.2031,0.3608 -2.9063,0.1875 -2.6304,-1.5484 -4.8588,-5.8343 -6.9911,-5.2367 -1.7478,-0.3064 1.814,-0.96 -1.8437,-4.1116 1.036,-0.8999 3.8062,1.884 6.3214,2.317 3.0568,0.5262 5.9048,-2.2152 8.5134,-0.5313 2.5236,3.0218 3.6629,6.1312 3.3125,8.625 -0.2233,1.5893 -1.003,3.0888 -2.5937,3.25 z"
                   style="fill:#ff3300;fill-opacity:0.97000002;fill-rule:nonzero;stroke:none"
                   id="path4527"
                   inkscape:connector-curvature="0" /><path
                   d="m 17.3337,51.9412 c -1.5079,0.6941 -1.0371,3.0064 -2.8128,3.3102 -0.533,-0.6736 -0.2215,-0.8317 0.3734,-1.0819 1.2939,-0.6222 0.5364,-2.0003 -0.6657,-2.038 -1.202,-0.0377 -1.9875,1.0265 -2.0822,2.2141 -0.0237,1.4681 1.0686,2.953 2.4841,3.3231 1.5102,0.3949 2.6553,-0.9 3.1781,-1.9614 -0.7337,-1.6393 -0.7483,-2.5285 -0.4749,-3.7661 z"
                   style="fill:#ff3300;fill-opacity:0.97000002;fill-rule:nonzero;stroke:none"
                   id="path4529"
                   inkscape:connector-curvature="0" /><path
                   d="m 10.8678,56.2019 c 0.5651,0.092 1.3151,-0.44 1.3151,-0.44 0,0 -0.5434,-0.8098 -0.073,-2.2003 -1.0951,0.351 -0.6131,1.3774 -1.2786,1.6502 -0.4126,0.1691 -0.8049,-0.0255 -1.0959,-0.8068 -0.587,0.6916 0.239,1.6514 1.1325,1.7969 z"
                   style="fill:#ff3300;fill-opacity:0.97000002;fill-rule:nonzero;stroke:none"
                   id="path4531"
                   inkscape:connector-curvature="0" /></g></g></g></g><g
           id="g4537"
           transform="matrix(0.058176,0,0,0.058176,72.552,108.153)"><g
             id="g4539"
             transform="translate(0,-125)"><g
               id="g4541" /><g
               id="g4551"><g
                 clip-path="url(#clipPath4545)"
                 id="g4549"><path
                   d="M 40.9,88.9 55.5,57.4 c 0,1.5 -0.1,4 -0.1,7.1 l -3.2,27.9 c -7,-0.1 -11.3,-3.5 -11.3,-3.5 z m 18.3,3.6 c -1.7,0.1 -3.3,0.1 -4.7,0 l 1.6,-16 c 0.5,5.2 1.5,10.8 3.1,16 z M 23.3,65.3 c 2.6,-0.8 5.2,-1.7 8.1,-2.8 0,0 8.4,-4.3 14.9,-7 L 29.2,77 C 26.7,73.3 24.8,69.2 23.3,65.3 Z m -11,-14.9 c 0.5,2.7 1.1,5.5 2,8.1 -2.2,0.4 -4.4,0.7 -6.5,0.9 1.1,-3.2 2.7,-6.2 4.5,-9 z m 39.6,2.8 c 0,0 2.1,-0.7 3.1,0.4 L 38.7,87.3 C 35.9,85.2 33.4,82.8 31.2,80 L 50.9,53.6 c 0.4,-0.2 0.7,-0.3 1,-0.4 z m 41.9,32.1 c -1.4,5.9 -4,11.4 -7.4,16.1 2,-5.1 4.1,-10.7 5.6,-14.6 0.6,-0.4 1.3,-1 1.8,-1.5 z m -2.3,-6.1 c -4.2,3.3 -8.2,5.9 -12.1,7.9 L 64,82.5 60.9,74.7 C 60.4,69.8 60,63.6 60.4,58.5 c 0,0 0.9,-9.9 -2.7,-11.1 0,0 -3.9,-3.8 -13.8,0.9 0,0 -10.3,5.4 -23.1,8.8 C 18.8,49.5 18.3,43.7 18.3,43.2 26.3,35 37.6,30 50,30 c 24.8,0 45,20.2 45,45 0,0.5 0,1 0,1.5 -1.8,-0.3 -3.5,2.7 -3.5,2.7 z M 61.3,97.9 c 0.9,2.1 2.1,4.1 3.3,5.9 0,0 3.4,5.3 8.5,9.8 C 66.4,117.6 58.4,120 50,120 25.1,120 5,99.8 5,75 5,72.6 5.2,70.4 5.5,68.2 9,68.1 12.9,67.7 17.2,66.9 c 2.6,6.3 5,10.6 5,10.6 0,0 12,22.2 39.1,20.4 z M 62,85 l 0.9,0.3 2.6,6.4 c -0.6,0.1 -1,0.2 -1.6,0.3 -0.8,-2.1 -1.5,-4.5 -1.9,-7 z m 5.5,6.3 -2.2,-5.4 10.5,2.7 c -2.8,1.2 -5.6,2.1 -8.3,2.7 z m 3.2,11.3 c -1.4,-1.6 -2.8,-3.4 -4.1,-5.4 5,-0.9 9.3,-2.1 13,-3.5 z m 17,-12.8 -6.4,17.5 c -0.9,0.9 -1.8,1.7 -2.7,2.5 -2,-1.4 -4.1,-3.1 -6.2,-5.2 L 83.5,92 c 1.6,-0.8 3.1,-1.6 4.2,-2.2 z"
                   style="fill:#ff3300;fill-opacity:1;fill-rule:nonzero;stroke:none"
                   id="path4547"
                   inkscape:connector-curvature="0" /></g></g></g></g><g
           id="g4553"
           transform="matrix(0.058176,0,0,0.058176,78.9376,104.321)"><g
             id="g4555"
             transform="translate(0,-125)"><g
               id="g4557" /><g
               id="g4567"><g
                 clip-path="url(#clipPath4561)"
                 id="g4565"><path
                   d="M 40.9,88.9 55.5,57.4 c 0,1.5 -0.1,4 -0.1,7.1 l -3.2,27.9 c -7,-0.1 -11.3,-3.5 -11.3,-3.5 z m 18.3,3.6 c -1.7,0.1 -3.3,0.1 -4.7,0 l 1.6,-16 c 0.5,5.2 1.5,10.8 3.1,16 z M 23.3,65.3 c 2.6,-0.8 5.2,-1.7 8.1,-2.8 0,0 8.4,-4.3 14.9,-7 L 29.2,77 C 26.7,73.3 24.8,69.2 23.3,65.3 Z m -11,-14.9 c 0.5,2.7 1.1,5.5 2,8.1 -2.2,0.4 -4.4,0.7 -6.5,0.9 1.1,-3.2 2.7,-6.2 4.5,-9 z m 39.6,2.8 c 0,0 2.1,-0.7 3.1,0.4 L 38.7,87.3 C 35.9,85.2 33.4,82.8 31.2,80 L 50.9,53.6 c 0.4,-0.2 0.7,-0.3 1,-0.4 z m 41.9,32.1 c -1.4,5.9 -4,11.4 -7.4,16.1 2,-5.1 4.1,-10.7 5.6,-14.6 0.6,-0.4 1.3,-1 1.8,-1.5 z m -2.3,-6.1 c -4.2,3.3 -8.2,5.9 -12.1,7.9 L 64,82.5 60.9,74.7 C 60.4,69.8 60,63.6 60.4,58.5 c 0,0 0.9,-9.9 -2.7,-11.1 0,0 -3.9,-3.8 -13.8,0.9 0,0 -10.3,5.4 -23.1,8.8 C 18.8,49.5 18.3,43.7 18.3,43.2 26.3,35 37.6,30 50,30 c 24.8,0 45,20.2 45,45 0,0.5 0,1 0,1.5 -1.8,-0.3 -3.5,2.7 -3.5,2.7 z M 61.3,97.9 c 0.9,2.1 2.1,4.1 3.3,5.9 0,0 3.4,5.3 8.5,9.8 C 66.4,117.6 58.4,120 50,120 25.1,120 5,99.8 5,75 5,72.6 5.2,70.4 5.5,68.2 9,68.1 12.9,67.7 17.2,66.9 c 2.6,6.3 5,10.6 5,10.6 0,0 12,22.2 39.1,20.4 z M 62,85 l 0.9,0.3 2.6,6.4 c -0.6,0.1 -1,0.2 -1.6,0.3 -0.8,-2.1 -1.5,-4.5 -1.9,-7 z m 5.5,6.3 -2.2,-5.4 10.5,2.7 c -2.8,1.2 -5.6,2.1 -8.3,2.7 z m 3.2,11.3 c -1.4,-1.6 -2.8,-3.4 -4.1,-5.4 5,-0.9 9.3,-2.1 13,-3.5 z m 17,-12.8 -6.4,17.5 c -0.9,0.9 -1.8,1.7 -2.7,2.5 -2,-1.4 -4.1,-3.1 -6.2,-5.2 L 83.5,92 c 1.6,-0.8 3.1,-1.6 4.2,-2.2 z"
                   style="fill:#ff3300;fill-opacity:1;fill-rule:nonzero;stroke:none"
                   id="path4563"
                   inkscape:connector-curvature="0" /></g></g></g></g><g
           id="g4569"
           transform="matrix(0.024073,0,0,0.024073,90.7746,109.657)"><g
             id="g4571"
             transform="translate(0,-125)"><g
               id="g4573" /><g
               id="g4583"><g
                 clip-path="url(#clipPath4577)"
                 id="g4581"><path
                   d="M 40.9,88.9 55.5,57.4 c 0,1.5 -0.1,4 -0.1,7.1 l -3.2,27.9 c -7,-0.1 -11.3,-3.5 -11.3,-3.5 z m 18.3,3.6 c -1.7,0.1 -3.3,0.1 -4.7,0 l 1.6,-16 c 0.5,5.2 1.5,10.8 3.1,16 z M 23.3,65.3 c 2.6,-0.8 5.2,-1.7 8.1,-2.8 0,0 8.4,-4.3 14.9,-7 L 29.2,77 C 26.7,73.3 24.8,69.2 23.3,65.3 Z m -11,-14.9 c 0.5,2.7 1.1,5.5 2,8.1 -2.2,0.4 -4.4,0.7 -6.5,0.9 1.1,-3.2 2.7,-6.2 4.5,-9 z m 39.6,2.8 c 0,0 2.1,-0.7 3.1,0.4 L 38.7,87.3 C 35.9,85.2 33.4,82.8 31.2,80 L 50.9,53.6 c 0.4,-0.2 0.7,-0.3 1,-0.4 z m 41.9,32.1 c -1.4,5.9 -4,11.4 -7.4,16.1 2,-5.1 4.1,-10.7 5.6,-14.6 0.6,-0.4 1.3,-1 1.8,-1.5 z m -2.3,-6.1 c -4.2,3.3 -8.2,5.9 -12.1,7.9 L 64,82.5 60.9,74.7 C 60.4,69.8 60,63.6 60.4,58.5 c 0,0 0.9,-9.9 -2.7,-11.1 0,0 -3.9,-3.8 -13.8,0.9 0,0 -10.3,5.4 -23.1,8.8 C 18.8,49.5 18.3,43.7 18.3,43.2 26.3,35 37.6,30 50,30 c 24.8,0 45,20.2 45,45 0,0.5 0,1 0,1.5 -1.8,-0.3 -3.5,2.7 -3.5,2.7 z M 61.3,97.9 c 0.9,2.1 2.1,4.1 3.3,5.9 0,0 3.4,5.3 8.5,9.8 C 66.4,117.6 58.4,120 50,120 25.1,120 5,99.8 5,75 5,72.6 5.2,70.4 5.5,68.2 9,68.1 12.9,67.7 17.2,66.9 c 2.6,6.3 5,10.6 5,10.6 0,0 12,22.2 39.1,20.4 z M 62,85 l 0.9,0.3 2.6,6.4 c -0.6,0.1 -1,0.2 -1.6,0.3 -0.8,-2.1 -1.5,-4.5 -1.9,-7 z m 5.5,6.3 -2.2,-5.4 10.5,2.7 c -2.8,1.2 -5.6,2.1 -8.3,2.7 z m 3.2,11.3 c -1.4,-1.6 -2.8,-3.4 -4.1,-5.4 5,-0.9 9.3,-2.1 13,-3.5 z m 17,-12.8 -6.4,17.5 c -0.9,0.9 -1.8,1.7 -2.7,2.5 -2,-1.4 -4.1,-3.1 -6.2,-5.2 L 83.5,92 c 1.6,-0.8 3.1,-1.6 4.2,-2.2 z"
                   style="fill:#ff3300;fill-opacity:1;fill-rule:nonzero;stroke:none"
                   id="path4579"
                   inkscape:connector-curvature="0" /></g></g></g></g><g
           id="g4585"
           transform="matrix(0.027311,0,0,0.027311,83.2279,114.335)"><g
             id="g4587"
             transform="translate(0,-125)"><g
               id="g4589" /><g
               id="g4599"><g
                 clip-path="url(#clipPath4593)"
                 id="g4597"><path
                   d="M 40.9,88.9 55.5,57.4 c 0,1.5 -0.1,4 -0.1,7.1 l -3.2,27.9 c -7,-0.1 -11.3,-3.5 -11.3,-3.5 z m 18.3,3.6 c -1.7,0.1 -3.3,0.1 -4.7,0 l 1.6,-16 c 0.5,5.2 1.5,10.8 3.1,16 z M 23.3,65.3 c 2.6,-0.8 5.2,-1.7 8.1,-2.8 0,0 8.4,-4.3 14.9,-7 L 29.2,77 C 26.7,73.3 24.8,69.2 23.3,65.3 Z m -11,-14.9 c 0.5,2.7 1.1,5.5 2,8.1 -2.2,0.4 -4.4,0.7 -6.5,0.9 1.1,-3.2 2.7,-6.2 4.5,-9 z m 39.6,2.8 c 0,0 2.1,-0.7 3.1,0.4 L 38.7,87.3 C 35.9,85.2 33.4,82.8 31.2,80 L 50.9,53.6 c 0.4,-0.2 0.7,-0.3 1,-0.4 z m 41.9,32.1 c -1.4,5.9 -4,11.4 -7.4,16.1 2,-5.1 4.1,-10.7 5.6,-14.6 0.6,-0.4 1.3,-1 1.8,-1.5 z m -2.3,-6.1 c -4.2,3.3 -8.2,5.9 -12.1,7.9 L 64,82.5 60.9,74.7 C 60.4,69.8 60,63.6 60.4,58.5 c 0,0 0.9,-9.9 -2.7,-11.1 0,0 -3.9,-3.8 -13.8,0.9 0,0 -10.3,5.4 -23.1,8.8 C 18.8,49.5 18.3,43.7 18.3,43.2 26.3,35 37.6,30 50,30 c 24.8,0 45,20.2 45,45 0,0.5 0,1 0,1.5 -1.8,-0.3 -3.5,2.7 -3.5,2.7 z M 61.3,97.9 c 0.9,2.1 2.1,4.1 3.3,5.9 0,0 3.4,5.3 8.5,9.8 C 66.4,117.6 58.4,120 50,120 25.1,120 5,99.8 5,75 5,72.6 5.2,70.4 5.5,68.2 9,68.1 12.9,67.7 17.2,66.9 c 2.6,6.3 5,10.6 5,10.6 0,0 12,22.2 39.1,20.4 z M 62,85 l 0.9,0.3 2.6,6.4 c -0.6,0.1 -1,0.2 -1.6,0.3 -0.8,-2.1 -1.5,-4.5 -1.9,-7 z m 5.5,6.3 -2.2,-5.4 10.5,2.7 c -2.8,1.2 -5.6,2.1 -8.3,2.7 z m 3.2,11.3 c -1.4,-1.6 -2.8,-3.4 -4.1,-5.4 5,-0.9 9.3,-2.1 13,-3.5 z m 17,-12.8 -6.4,17.5 c -0.9,0.9 -1.8,1.7 -2.7,2.5 -2,-1.4 -4.1,-3.1 -6.2,-5.2 L 83.5,92 c 1.6,-0.8 3.1,-1.6 4.2,-2.2 z"
                   style="fill:#ff3300;fill-opacity:1;fill-rule:nonzero;stroke:none"
                   id="path4595"
                   inkscape:connector-curvature="0" /></g></g></g></g><g
           id="g4601"
           transform="matrix(0.044286,0,0,0.044286,78.2072,113.689)"><g
             id="g4603"
             transform="translate(0,-125)"><g
               id="g4605" /><g
               id="g4615"><g
                 clip-path="url(#clipPath4609)"
                 id="g4613"><path
                   d="M 40.9,88.9 55.5,57.4 c 0,1.5 -0.1,4 -0.1,7.1 l -3.2,27.9 c -7,-0.1 -11.3,-3.5 -11.3,-3.5 z m 18.3,3.6 c -1.7,0.1 -3.3,0.1 -4.7,0 l 1.6,-16 c 0.5,5.2 1.5,10.8 3.1,16 z M 23.3,65.3 c 2.6,-0.8 5.2,-1.7 8.1,-2.8 0,0 8.4,-4.3 14.9,-7 L 29.2,77 C 26.7,73.3 24.8,69.2 23.3,65.3 Z m -11,-14.9 c 0.5,2.7 1.1,5.5 2,8.1 -2.2,0.4 -4.4,0.7 -6.5,0.9 1.1,-3.2 2.7,-6.2 4.5,-9 z m 39.6,2.8 c 0,0 2.1,-0.7 3.1,0.4 L 38.7,87.3 C 35.9,85.2 33.4,82.8 31.2,80 L 50.9,53.6 c 0.4,-0.2 0.7,-0.3 1,-0.4 z m 41.9,32.1 c -1.4,5.9 -4,11.4 -7.4,16.1 2,-5.1 4.1,-10.7 5.6,-14.6 0.6,-0.4 1.3,-1 1.8,-1.5 z m -2.3,-6.1 c -4.2,3.3 -8.2,5.9 -12.1,7.9 L 64,82.5 60.9,74.7 C 60.4,69.8 60,63.6 60.4,58.5 c 0,0 0.9,-9.9 -2.7,-11.1 0,0 -3.9,-3.8 -13.8,0.9 0,0 -10.3,5.4 -23.1,8.8 C 18.8,49.5 18.3,43.7 18.3,43.2 26.3,35 37.6,30 50,30 c 24.8,0 45,20.2 45,45 0,0.5 0,1 0,1.5 -1.8,-0.3 -3.5,2.7 -3.5,2.7 z M 61.3,97.9 c 0.9,2.1 2.1,4.1 3.3,5.9 0,0 3.4,5.3 8.5,9.8 C 66.4,117.6 58.4,120 50,120 25.1,120 5,99.8 5,75 5,72.6 5.2,70.4 5.5,68.2 9,68.1 12.9,67.7 17.2,66.9 c 2.6,6.3 5,10.6 5,10.6 0,0 12,22.2 39.1,20.4 z M 62,85 l 0.9,0.3 2.6,6.4 c -0.6,0.1 -1,0.2 -1.6,0.3 -0.8,-2.1 -1.5,-4.5 -1.9,-7 z m 5.5,6.3 -2.2,-5.4 10.5,2.7 c -2.8,1.2 -5.6,2.1 -8.3,2.7 z m 3.2,11.3 c -1.4,-1.6 -2.8,-3.4 -4.1,-5.4 5,-0.9 9.3,-2.1 13,-3.5 z m 17,-12.8 -6.4,17.5 c -0.9,0.9 -1.8,1.7 -2.7,2.5 -2,-1.4 -4.1,-3.1 -6.2,-5.2 L 83.5,92 c 1.6,-0.8 3.1,-1.6 4.2,-2.2 z"
                   style="fill:#ff3300;fill-opacity:1;fill-rule:nonzero;stroke:none"
                   id="path4611"
                   inkscape:connector-curvature="0" /></g></g></g></g><g
           id="g4617"
           transform="matrix(0.098272,0,0,0.098272,60.1593,110.921)"><g
             id="g4619"
             transform="translate(0,-125)"><g
               id="g4621" /><g
               id="g4631"><g
                 clip-path="url(#clipPath4625)"
                 id="g4629"><path
                   d="M 40.9,88.9 55.5,57.4 c 0,1.5 -0.1,4 -0.1,7.1 l -3.2,27.9 c -7,-0.1 -11.3,-3.5 -11.3,-3.5 z m 18.3,3.6 c -1.7,0.1 -3.3,0.1 -4.7,0 l 1.6,-16 c 0.5,5.2 1.5,10.8 3.1,16 z M 23.3,65.3 c 2.6,-0.8 5.2,-1.7 8.1,-2.8 0,0 8.4,-4.3 14.9,-7 L 29.2,77 C 26.7,73.3 24.8,69.2 23.3,65.3 Z m -11,-14.9 c 0.5,2.7 1.1,5.5 2,8.1 -2.2,0.4 -4.4,0.7 -6.5,0.9 1.1,-3.2 2.7,-6.2 4.5,-9 z m 39.6,2.8 c 0,0 2.1,-0.7 3.1,0.4 L 38.7,87.3 C 35.9,85.2 33.4,82.8 31.2,80 L 50.9,53.6 c 0.4,-0.2 0.7,-0.3 1,-0.4 z m 41.9,32.1 c -1.4,5.9 -4,11.4 -7.4,16.1 2,-5.1 4.1,-10.7 5.6,-14.6 0.6,-0.4 1.3,-1 1.8,-1.5 z m -2.3,-6.1 c -4.2,3.3 -8.2,5.9 -12.1,7.9 L 64,82.5 60.9,74.7 C 60.4,69.8 60,63.6 60.4,58.5 c 0,0 0.9,-9.9 -2.7,-11.1 0,0 -3.9,-3.8 -13.8,0.9 0,0 -10.3,5.4 -23.1,8.8 C 18.8,49.5 18.3,43.7 18.3,43.2 26.3,35 37.6,30 50,30 c 24.8,0 45,20.2 45,45 0,0.5 0,1 0,1.5 -1.8,-0.3 -3.5,2.7 -3.5,2.7 z M 61.3,97.9 c 0.9,2.1 2.1,4.1 3.3,5.9 0,0 3.4,5.3 8.5,9.8 C 66.4,117.6 58.4,120 50,120 25.1,120 5,99.8 5,75 5,72.6 5.2,70.4 5.5,68.2 9,68.1 12.9,67.7 17.2,66.9 c 2.6,6.3 5,10.6 5,10.6 0,0 12,22.2 39.1,20.4 z M 62,85 l 0.9,0.3 2.6,6.4 c -0.6,0.1 -1,0.2 -1.6,0.3 -0.8,-2.1 -1.5,-4.5 -1.9,-7 z m 5.5,6.3 -2.2,-5.4 10.5,2.7 c -2.8,1.2 -5.6,2.1 -8.3,2.7 z m 3.2,11.3 c -1.4,-1.6 -2.8,-3.4 -4.1,-5.4 5,-0.9 9.3,-2.1 13,-3.5 z m 17,-12.8 -6.4,17.5 c -0.9,0.9 -1.8,1.7 -2.7,2.5 -2,-1.4 -4.1,-3.1 -6.2,-5.2 L 83.5,92 c 1.6,-0.8 3.1,-1.6 4.2,-2.2 z"
                   style="fill:#ff3300;fill-opacity:1;fill-rule:nonzero;stroke:none"
                   id="path4627"
                   inkscape:connector-curvature="0" /></g></g></g></g><g
           id="g4633"
           transform="matrix(0.098272,0,0,0.098272,65.9064,102.619)"><g
             id="g4635"
             transform="translate(0,-125)"><g
               id="g4637" /><g
               id="g4647"><g
                 clip-path="url(#clipPath4641)"
                 id="g4645"><path
                   d="M 40.9,88.9 55.5,57.4 c 0,1.5 -0.1,4 -0.1,7.1 l -3.2,27.9 c -7,-0.1 -11.3,-3.5 -11.3,-3.5 z m 18.3,3.6 c -1.7,0.1 -3.3,0.1 -4.7,0 l 1.6,-16 c 0.5,5.2 1.5,10.8 3.1,16 z M 23.3,65.3 c 2.6,-0.8 5.2,-1.7 8.1,-2.8 0,0 8.4,-4.3 14.9,-7 L 29.2,77 C 26.7,73.3 24.8,69.2 23.3,65.3 Z m -11,-14.9 c 0.5,2.7 1.1,5.5 2,8.1 -2.2,0.4 -4.4,0.7 -6.5,0.9 1.1,-3.2 2.7,-6.2 4.5,-9 z m 39.6,2.8 c 0,0 2.1,-0.7 3.1,0.4 L 38.7,87.3 C 35.9,85.2 33.4,82.8 31.2,80 L 50.9,53.6 c 0.4,-0.2 0.7,-0.3 1,-0.4 z m 41.9,32.1 c -1.4,5.9 -4,11.4 -7.4,16.1 2,-5.1 4.1,-10.7 5.6,-14.6 0.6,-0.4 1.3,-1 1.8,-1.5 z m -2.3,-6.1 c -4.2,3.3 -8.2,5.9 -12.1,7.9 L 64,82.5 60.9,74.7 C 60.4,69.8 60,63.6 60.4,58.5 c 0,0 0.9,-9.9 -2.7,-11.1 0,0 -3.9,-3.8 -13.8,0.9 0,0 -10.3,5.4 -23.1,8.8 C 18.8,49.5 18.3,43.7 18.3,43.2 26.3,35 37.6,30 50,30 c 24.8,0 45,20.2 45,45 0,0.5 0,1 0,1.5 -1.8,-0.3 -3.5,2.7 -3.5,2.7 z M 61.3,97.9 c 0.9,2.1 2.1,4.1 3.3,5.9 0,0 3.4,5.3 8.5,9.8 C 66.4,117.6 58.4,120 50,120 25.1,120 5,99.8 5,75 5,72.6 5.2,70.4 5.5,68.2 9,68.1 12.9,67.7 17.2,66.9 c 2.6,6.3 5,10.6 5,10.6 0,0 12,22.2 39.1,20.4 z M 62,85 l 0.9,0.3 2.6,6.4 c -0.6,0.1 -1,0.2 -1.6,0.3 -0.8,-2.1 -1.5,-4.5 -1.9,-7 z m 5.5,6.3 -2.2,-5.4 10.5,2.7 c -2.8,1.2 -5.6,2.1 -8.3,2.7 z m 3.2,11.3 c -1.4,-1.6 -2.8,-3.4 -4.1,-5.4 5,-0.9 9.3,-2.1 13,-3.5 z m 17,-12.8 -6.4,17.5 c -0.9,0.9 -1.8,1.7 -2.7,2.5 -2,-1.4 -4.1,-3.1 -6.2,-5.2 L 83.5,92 c 1.6,-0.8 3.1,-1.6 4.2,-2.2 z"
                   style="fill:#ff3300;fill-opacity:1;fill-rule:nonzero;stroke:none"
                   id="path4643"
                   inkscape:connector-curvature="0" /></g></g></g></g><g
           id="g4649"
           transform="matrix(0.040731,0,0,0.040731,73.4243,115.376)"><g
             id="g4651"
             transform="translate(0,-125)"><g
               id="g4653" /><g
               id="g4663"><g
                 clip-path="url(#clipPath4657)"
                 id="g4661"><path
                   d="M 40.9,88.9 55.5,57.4 c 0,1.5 -0.1,4 -0.1,7.1 l -3.2,27.9 c -7,-0.1 -11.3,-3.5 -11.3,-3.5 z m 18.3,3.6 c -1.7,0.1 -3.3,0.1 -4.7,0 l 1.6,-16 c 0.5,5.2 1.5,10.8 3.1,16 z M 23.3,65.3 c 2.6,-0.8 5.2,-1.7 8.1,-2.8 0,0 8.4,-4.3 14.9,-7 L 29.2,77 C 26.7,73.3 24.8,69.2 23.3,65.3 Z m -11,-14.9 c 0.5,2.7 1.1,5.5 2,8.1 -2.2,0.4 -4.4,0.7 -6.5,0.9 1.1,-3.2 2.7,-6.2 4.5,-9 z m 39.6,2.8 c 0,0 2.1,-0.7 3.1,0.4 L 38.7,87.3 C 35.9,85.2 33.4,82.8 31.2,80 L 50.9,53.6 c 0.4,-0.2 0.7,-0.3 1,-0.4 z m 41.9,32.1 c -1.4,5.9 -4,11.4 -7.4,16.1 2,-5.1 4.1,-10.7 5.6,-14.6 0.6,-0.4 1.3,-1 1.8,-1.5 z m -2.3,-6.1 c -4.2,3.3 -8.2,5.9 -12.1,7.9 L 64,82.5 60.9,74.7 C 60.4,69.8 60,63.6 60.4,58.5 c 0,0 0.9,-9.9 -2.7,-11.1 0,0 -3.9,-3.8 -13.8,0.9 0,0 -10.3,5.4 -23.1,8.8 C 18.8,49.5 18.3,43.7 18.3,43.2 26.3,35 37.6,30 50,30 c 24.8,0 45,20.2 45,45 0,0.5 0,1 0,1.5 -1.8,-0.3 -3.5,2.7 -3.5,2.7 z M 61.3,97.9 c 0.9,2.1 2.1,4.1 3.3,5.9 0,0 3.4,5.3 8.5,9.8 C 66.4,117.6 58.4,120 50,120 25.1,120 5,99.8 5,75 5,72.6 5.2,70.4 5.5,68.2 9,68.1 12.9,67.7 17.2,66.9 c 2.6,6.3 5,10.6 5,10.6 0,0 12,22.2 39.1,20.4 z M 62,85 l 0.9,0.3 2.6,6.4 c -0.6,0.1 -1,0.2 -1.6,0.3 -0.8,-2.1 -1.5,-4.5 -1.9,-7 z m 5.5,6.3 -2.2,-5.4 10.5,2.7 c -2.8,1.2 -5.6,2.1 -8.3,2.7 z m 3.2,11.3 c -1.4,-1.6 -2.8,-3.4 -4.1,-5.4 5,-0.9 9.3,-2.1 13,-3.5 z m 17,-12.8 -6.4,17.5 c -0.9,0.9 -1.8,1.7 -2.7,2.5 -2,-1.4 -4.1,-3.1 -6.2,-5.2 L 83.5,92 c 1.6,-0.8 3.1,-1.6 4.2,-2.2 z"
                   style="fill:#ff3300;fill-opacity:1;fill-rule:nonzero;stroke:none"
                   id="path4659"
                   inkscape:connector-curvature="0" /></g></g></g></g><g
           id="g4665"
           transform="matrix(0.040731,0,0,0.040731,82.6358,109.194)"><g
             id="g4667"
             transform="translate(0,-125)"><g
               id="g4669" /><g
               id="g4679"><g
                 clip-path="url(#clipPath4673)"
                 id="g4677"><path
                   d="M 40.9,88.9 55.5,57.4 c 0,1.5 -0.1,4 -0.1,7.1 l -3.2,27.9 c -7,-0.1 -11.3,-3.5 -11.3,-3.5 z m 18.3,3.6 c -1.7,0.1 -3.3,0.1 -4.7,0 l 1.6,-16 c 0.5,5.2 1.5,10.8 3.1,16 z M 23.3,65.3 c 2.6,-0.8 5.2,-1.7 8.1,-2.8 0,0 8.4,-4.3 14.9,-7 L 29.2,77 C 26.7,73.3 24.8,69.2 23.3,65.3 Z m -11,-14.9 c 0.5,2.7 1.1,5.5 2,8.1 -2.2,0.4 -4.4,0.7 -6.5,0.9 1.1,-3.2 2.7,-6.2 4.5,-9 z m 39.6,2.8 c 0,0 2.1,-0.7 3.1,0.4 L 38.7,87.3 C 35.9,85.2 33.4,82.8 31.2,80 L 50.9,53.6 c 0.4,-0.2 0.7,-0.3 1,-0.4 z m 41.9,32.1 c -1.4,5.9 -4,11.4 -7.4,16.1 2,-5.1 4.1,-10.7 5.6,-14.6 0.6,-0.4 1.3,-1 1.8,-1.5 z m -2.3,-6.1 c -4.2,3.3 -8.2,5.9 -12.1,7.9 L 64,82.5 60.9,74.7 C 60.4,69.8 60,63.6 60.4,58.5 c 0,0 0.9,-9.9 -2.7,-11.1 0,0 -3.9,-3.8 -13.8,0.9 0,0 -10.3,5.4 -23.1,8.8 C 18.8,49.5 18.3,43.7 18.3,43.2 26.3,35 37.6,30 50,30 c 24.8,0 45,20.2 45,45 0,0.5 0,1 0,1.5 -1.8,-0.3 -3.5,2.7 -3.5,2.7 z M 61.3,97.9 c 0.9,2.1 2.1,4.1 3.3,5.9 0,0 3.4,5.3 8.5,9.8 C 66.4,117.6 58.4,120 50,120 25.1,120 5,99.8 5,75 5,72.6 5.2,70.4 5.5,68.2 9,68.1 12.9,67.7 17.2,66.9 c 2.6,6.3 5,10.6 5,10.6 0,0 12,22.2 39.1,20.4 z M 62,85 l 0.9,0.3 2.6,6.4 c -0.6,0.1 -1,0.2 -1.6,0.3 -0.8,-2.1 -1.5,-4.5 -1.9,-7 z m 5.5,6.3 -2.2,-5.4 10.5,2.7 c -2.8,1.2 -5.6,2.1 -8.3,2.7 z m 3.2,11.3 c -1.4,-1.6 -2.8,-3.4 -4.1,-5.4 5,-0.9 9.3,-2.1 13,-3.5 z m 17,-12.8 -6.4,17.5 c -0.9,0.9 -1.8,1.7 -2.7,2.5 -2,-1.4 -4.1,-3.1 -6.2,-5.2 L 83.5,92 c 1.6,-0.8 3.1,-1.6 4.2,-2.2 z"
                   style="fill:#ff3300;fill-opacity:1;fill-rule:nonzero;stroke:none"
                   id="path4675"
                   inkscape:connector-curvature="0" /></g></g></g></g><path
           d="m 43.3283,64.5655 -3.7739,8.3871 3.7739,8.387 h 38.3354 l 3.7739,-8.387 -3.7739,-8.3871 z"
           style="fill:#ff3807;fill-opacity:1;fill-rule:evenodd;stroke:none"
           id="path4681"
           inkscape:connector-curvature="0" /><path
           d="M 48.483594,78.719551 H 43.457662 V 66.503742 h 2.26865 v 3.525133 h 2.757282 c 3.211013,0 5.200445,1.65786 5.200445,4.345338 0,2.704929 -1.989432,4.345338 -5.200445,4.345338 z m -0.104707,-6.771048 h -2.652575 v 4.851421 h 2.652575 c 1.989432,0 3.01905,-0.890009 3.01905,-2.425711 0,-1.535702 -1.029618,-2.42571 -3.01905,-2.42571 z"
           style="font-style:normal;font-variant:normal;font-weight:600;font-stretch:normal;font-size:medium;font-family:Montserrat;-inkscape-font-specification:'Montserrat Semi-Bold';writing-mode:lr-tb;fill:#f9f9f9;fill-opacity:1;fill-rule:nonzero;stroke:none;stroke-width:0.96484524"
           id="path4586"
           inkscape:connector-curvature="0" /><path
           d="m 56.125455,77.358361 c 0.820204,0 1.396093,0.593339 1.396093,1.36119 0,0.715497 -0.59334,1.256483 -1.396093,1.256483 -0.802753,0 -1.396092,-0.575888 -1.396092,-1.308837 0,-0.732948 0.593339,-1.308836 1.396092,-1.308836 z M 55.026032,66.503742 h 2.181395 v 9.318917 h -2.181395 z"
           style="font-style:normal;font-variant:normal;font-weight:600;font-stretch:normal;font-size:medium;font-family:Montserrat;-inkscape-font-specification:'Montserrat Semi-Bold';writing-mode:lr-tb;fill:#f9f9f9;fill-opacity:1;fill-rule:nonzero;stroke:none;stroke-width:0.96484524"
           id="path4588"
           inkscape:connector-curvature="0" /><path
           d="m 68.653639,68.946904 c -0.785302,-0.45373 -1.640408,-0.628242 -2.512966,-0.628242 -2.582771,0 -4.415142,1.81492 -4.415142,4.292984 0,2.530418 1.832371,4.292985 4.432593,4.292985 1.308837,0 2.40826,-0.436279 3.368073,-1.396093 l 1.430995,1.396093 c -1.151776,1.308836 -2.86199,1.989431 -4.903775,1.989431 -3.821803,0 -6.613988,-2.635124 -6.613988,-6.282416 0,-3.647291 2.792185,-6.282416 6.579086,-6.282416 1.727664,0 3.507682,0.523535 4.781616,1.553153 v 4.868873 h -2.146492 z"
           style="font-style:normal;font-variant:normal;font-weight:600;font-stretch:normal;font-size:medium;font-family:Montserrat;-inkscape-font-specification:'Montserrat Semi-Bold';writing-mode:lr-tb;fill:#f9f9f9;fill-opacity:1;fill-rule:nonzero;stroke:none;stroke-width:0.96484524"
           id="path4590"
           inkscape:connector-curvature="0" /><path
           d="m 81.534337,66.503742 -3.647291,4.764165 3.490231,4.554752 h -2.355906 l -2.286101,-3.053952 -2.286102,3.053952 h -2.42571 l 3.47278,-4.589654 -3.629841,-4.729263 h 2.40826 l 2.408259,3.228464 2.390809,-3.228464 z"
           style="font-style:normal;font-variant:normal;font-weight:600;font-stretch:normal;font-size:medium;font-family:Montserrat;-inkscape-font-specification:'Montserrat Semi-Bold';writing-mode:lr-tb;fill:#f9f9f9;fill-opacity:1;fill-rule:nonzero;stroke:none;stroke-width:0.96484524"
           id="path4592"
           inkscape:connector-curvature="0" /><g
           id="g4711"
           transform="rotate(30.167519,-211.16598,41.285893)"><g
             id="g4713"
             transform="translate(9.27267,-130.341)" /></g></g></g></g></svg>