<?xml version="1.0" encoding="UTF-8" standalone="no"?>
<!-- Created with Inkscape (http://www.inkscape.org/) -->

<svg
   xmlns:dc="http://purl.org/dc/elements/1.1/"
   xmlns:cc="http://creativecommons.org/ns#"
   xmlns:rdf="http://www.w3.org/1999/02/22-rdf-syntax-ns#"
   xmlns:svg="http://www.w3.org/2000/svg"
   xmlns="http://www.w3.org/2000/svg"
   xmlns:sodipodi="http://sodipodi.sourceforge.net/DTD/sodipodi-0.dtd"
   xmlns:inkscape="http://www.inkscape.org/namespaces/inkscape"
   width="0.76431781mm"
   height="0.76431781mm"
   viewBox="0 0 0.76431781 0.76431781"
   version="1.1"
   id="svg4625"
   inkscape:version="0.92.1 r15371"
   sodipodi:docname="list.svg">
  <defs
     id="defs4619">
    <clipPath
       clipPathUnits="userSpaceOnUse"
       id="clipPath4577">
      <path
         d="M 0,0 H 100 V 125 H 0 Z"
         id="path4575"
         inkscape:connector-curvature="0" />
    </clipPath>
  </defs>
  <sodipodi:namedview
     id="base"
     pagecolor="#ffffff"
     bordercolor="#666666"
     borderopacity="1.0"
     inkscape:pageopacity="0.0"
     inkscape:pageshadow="2"
     inkscape:zoom="62.366818"
     inkscape:cx="-0.29852094"
     inkscape:cy="-2.2262422"
     inkscape:document-units="mm"
     inkscape:current-layer="layer1"
     showgrid="false"
     inkscape:window-width="1918"
     inkscape:window-height="1198"
     inkscape:window-x="1"
     inkscape:window-y="1"
     inkscape:window-maximized="0"
     fit-margin-top="0"
     fit-margin-left="0"
     fit-margin-right="0"
     fit-margin-bottom="0" />
  <metadata
     id="metadata4622">
    <rdf:RDF>
      <cc:Work
         rdf:about="">
        <dc:format>image/svg+xml</dc:format>
        <dc:type
           rdf:resource="http://purl.org/dc/dcmitype/StillImage" />
        <dc:title></dc:title>
      </cc:Work>
    </rdf:RDF>
  </metadata>
  <g
     inkscape:label="Layer 1"
     inkscape:groupmode="layer"
     id="layer1"
     transform="translate(-105.45117,-148.45117)">
    <g
       id="g4569"
       transform="matrix(0.00849242,0,0,-0.00849242,105.40871,148.40871)">
      <g
         id="g4571"
         transform="translate(0,-125)">
        <g
           id="g4573" />
        <g
           id="g4583">
          <g
             clip-path="url(#clipPath4577)"
             id="g4581">
            <path
               d="M 40.9,88.9 55.5,57.4 c 0,1.5 -0.1,4 -0.1,7.1 l -3.2,27.9 c -7,-0.1 -11.3,-3.5 -11.3,-3.5 z m 18.3,3.6 c -1.7,0.1 -3.3,0.1 -4.7,0 l 1.6,-16 c 0.5,5.2 1.5,10.8 3.1,16 z M 23.3,65.3 c 2.6,-0.8 5.2,-1.7 8.1,-2.8 0,0 8.4,-4.3 14.9,-7 L 29.2,77 C 26.7,73.3 24.8,69.2 23.3,65.3 Z m -11,-14.9 c 0.5,2.7 1.1,5.5 2,8.1 -2.2,0.4 -4.4,0.7 -6.5,0.9 1.1,-3.2 2.7,-6.2 4.5,-9 z m 39.6,2.8 c 0,0 2.1,-0.7 3.1,0.4 L 38.7,87.3 C 35.9,85.2 33.4,82.8 31.2,80 L 50.9,53.6 c 0.4,-0.2 0.7,-0.3 1,-0.4 z m 41.9,32.1 c -1.4,5.9 -4,11.4 -7.4,16.1 2,-5.1 4.1,-10.7 5.6,-14.6 0.6,-0.4 1.3,-1 1.8,-1.5 z m -2.3,-6.1 c -4.2,3.3 -8.2,5.9 -12.1,7.9 L 64,82.5 60.9,74.7 C 60.4,69.8 60,63.6 60.4,58.5 c 0,0 0.9,-9.9 -2.7,-11.1 0,0 -3.9,-3.8 -13.8,0.9 0,0 -10.3,5.4 -23.1,8.8 C 18.8,49.5 18.3,43.7 18.3,43.2 26.3,35 37.6,30 50,30 c 24.8,0 45,20.2 45,45 0,0.5 0,1 0,1.5 -1.8,-0.3 -3.5,2.7 -3.5,2.7 z M 61.3,97.9 c 0.9,2.1 2.1,4.1 3.3,5.9 0,0 3.4,5.3 8.5,9.8 C 66.4,117.6 58.4,120 50,120 25.1,120 5,99.8 5,75 5,72.6 5.2,70.4 5.5,68.2 9,68.1 12.9,67.7 17.2,66.9 c 2.6,6.3 5,10.6 5,10.6 0,0 12,22.2 39.1,20.4 z M 62,85 l 0.9,0.3 2.6,6.4 c -0.6,0.1 -1,0.2 -1.6,0.3 -0.8,-2.1 -1.5,-4.5 -1.9,-7 z m 5.5,6.3 -2.2,-5.4 10.5,2.7 c -2.8,1.2 -5.6,2.1 -8.3,2.7 z m 3.2,11.3 c -1.4,-1.6 -2.8,-3.4 -4.1,-5.4 5,-0.9 9.3,-2.1 13,-3.5 z m 17,-12.8 -6.4,17.5 c -0.9,0.9 -1.8,1.7 -2.7,2.5 -2,-1.4 -4.1,-3.1 -6.2,-5.2 L 83.5,92 c 1.6,-0.8 3.1,-1.6 4.2,-2.2 z"
               style="fill:#ff3300;fill-opacity:1;fill-rule:nonzero;stroke:none"
               id="path4579"
               inkscape:connector-curvature="0" />
          </g>
        </g>
      </g>
    </g>
  </g>
</svg>
